<?xml version="1.0" encoding="utf-8"?>
<!-- Generator: Adobe Illustrator 27.8.0, SVG Export Plug-In . SVG Version: 6.00 Build 0)  -->
<svg version="1.2" baseProfile="tiny" id="Layer_1" xmlns="http://www.w3.org/2000/svg" xmlns:xlink="http://www.w3.org/1999/xlink"
	 x="0px" y="0px" viewBox="0 0 201 200" overflow="visible" xml:space="preserve">
<g id="Layer_1_00000106848644063259509600000005299531540001616283_">
	<path fill="#F4CB68" d="M72.8,46c0.9,0.7,1.7,1.1,2.5,1.2c-0.6,0.6-1.2,1.1-1.8,1.1c-0.6-0.3-1.1-0.6-1.7-1
		C72.2,47,72.6,46.5,72.8,46z"/>
	<path fill="#EEBC4A" d="M72.9,46c-0.2,0.5,1.3,1.3,1,2c0,0.1-0.1,0.2-0.1,0.2c0.1,0.1,1.2-0.4,1.3-1.1c0.1-0.8-1-1.5-1.8-1.3
		C73.2,45.7,73,45.8,72.9,46z"/>
	<path fill="#E1B759" d="M73.5,47.2C73,46.3,73,45.1,73,44.4c-0.7,0.4-1.7,1.2-1.8,1.9c0.2,0.6,0.5,1.2,0.8,1.8
		C72.4,47.5,72.9,47.3,73.5,47.2z"/>
	<path fill="#E1B759" d="M106.7,5.4c0.5-0.5,0.9-1,1.4-1.5c-0.1,1.3,0.7,3.1,1.8,4.8c-0.4,0.4-0.7,0.8-1.1,1.1
		C107.9,8.6,107,7,106.7,5.4z"/>
	<g>
		<path fill="#CB4417" d="M97.5,28C97.2,28.2,74.3,45.5,74,45.7c0,0,0,0,0.1,0.1L84.3,54c2.6,1.8,5.1,3.8,7.5,5.9
			c1.6,1.4,3.1,2.8,4.6,4.3c1.9,1.9,3.7,3.9,5.4,5.9c2.5,3,4.8,6.1,6.8,9.4c2,3.2,3.9,6.4,5.9,9.6c1.9,3.1,4.2,5.9,6.8,8.2
			c3.2,2.8,6.7,5,10.6,6.6c4,1.7,8.2,2.9,12.4,3.9c2.7,0.6,5.4,1.2,8,1.8c7.1,1.8,13.8,4.6,20.1,8.4c3.1,1.9,6.1,4,8.9,6.3
			c2.3,1.9,4.5,3.9,6.7,6c2.1,2,4.1,4,6.2,6c1.3,1.2,2.6,2.4,3.9,3.5c0.1,0.1,0.3,0.2,0.4,0.2c0.1-0.1,0.1-0.1,0.2-0.2
			c-0.3-2.5-0.9-5-1.7-7.4c-1.7-5.6-4-11-6.7-16.1c-1.6-3-3.5-5.9-5.5-8.6c-1.9-2.5-3.9-5-6-7.3c-1.9-2.1-3.9-4-5.9-5.9
			c-1.7-1.5-3.4-2.9-5.1-4.4c-1.3-1.1-2.5-2.2-3.8-3.4c-1-1-2-2-3-3c-1.6-1.7-3.2-3.5-4.7-5.4c-3.6-4.6-6.5-9.6-9.1-14.8
			c-1.8-3.6-3.5-7.3-4.9-11.2c-0.6-1.6-1.1-3.3-1.5-5c-1.3-5.1-3-9.9-5.2-14.6c-1.6-3.3-3.4-6.4-5.5-9.3c-1.6-2.3-3.4-4.4-5.2-6.5
			c-0.1-0.1-0.1-0.2-0.1-0.2c-0.9-0.9-1.7-1.8-2.6-2.6c-0.2-0.2-0.5-0.4-0.7-0.6c-2.9-2.7-6-5.2-9.3-7.3c-0.3-0.2-0.5-0.3-0.8-0.5
			c0,0.2-0.1,0.4-0.1,0.6L97.5,28z"/>
	</g>
	<path fill="#F4CB68" d="M199.5,139.8c-0.3-2.4-0.9-4.9-1.7-7.6c-1.8-5.8-4.1-11.2-6.8-16.3c-1.6-2.9-3.4-5.7-5.6-8.7
		c-1.9-2.6-3.9-5-6-7.4c-1.9-2.1-3.9-4.1-6-6c-1-0.9-2-1.8-3-2.6c-0.7-0.6-1.4-1.2-2.1-1.8c-1.3-1.2-2.5-2.3-3.7-3.4
		c-1-0.9-2-1.9-3-3c-1.5-1.6-3-3.3-4.6-5.4c-3.2-4-6.1-8.7-9.1-14.7c-2.1-4.1-3.6-7.7-4.9-11.1c-0.6-1.6-1.1-3.2-1.5-4.9
		c-1.3-5.3-3.1-10.2-5.3-14.7c-1.6-3.3-3.5-6.5-5.6-9.4c-1.7-2.4-3.5-4.6-5.3-6.5l0,0c0,0,0-0.1-0.1-0.1l-0.1-0.1l-2.6-2.7l-0.1-0.1
		c-0.1-0.1-0.2-0.1-0.2-0.2c-0.1-0.1-0.3-0.2-0.4-0.3c-2.9-2.8-6.1-5.3-9.4-7.4L112.1,5c-0.5-0.3-0.9-0.6-1.4-0.9
		c-0.1,0-0.1-0.1-0.2-0.1c-0.7-0.4-1.4-0.5-2.3-0.4c-0.5,0.6-1,1.2-1.5,1.8c0.8-0.2,1.8,0.1,2.9,0.5c-1.3,2.3-2.6,4.7-3.9,7
		c-1.6,2.8-3.3,5.4-5.3,7.8c-1.7,2.1-3.5,4-5.4,5.8l-15.3,14L74,44.7c-0.4-0.2-0.7-0.4-1-0.5c-0.8,0.3-1.5,0.8-1.7,1.7
		c1,0.1,2.4,0.7,3.5,1.4l9,7.2l0,0c2.6,1.8,5.1,3.8,7.4,5.9c1.5,1.3,3,2.7,4.5,4.3c1.8,1.8,3.6,3.8,5.4,5.9c2.6,3,4.8,6.2,6.8,9.3
		c1.3,2,2.5,4.1,3.7,6.1c0.7,1.2,1.5,2.4,2.2,3.6c2,3.2,4.3,6,7,8.4c3.1,2.8,6.6,5,10.8,6.7c3.7,1.5,7.6,2.8,12.5,3.9
		c1.1,0.3,2.3,0.5,3.4,0.8c1.5,0.3,3.1,0.7,4.6,1.1c6.9,1.7,13.6,4.5,19.8,8.3c3,1.8,6,3.9,8.8,6.2c2.2,1.8,4.4,3.7,6.7,5.9
		c0.7,0.7,1.4,1.3,2,2c1.4,1.3,2.8,2.7,4.2,4c1,0.9,2,1.8,3,2.7c0.3,0.3,0.6,0.6,1,0.9c0.2,0.1,0.3,0.2,0.4,0.3h0.1l0.5,0.3l0.9-0.9
		L199.5,139.8z M197.7,138.4c-1-0.9-2-1.8-2.9-2.7c-1.4-1.3-2.8-2.7-4.2-4c-0.7-0.7-1.4-1.3-2-2c-2.3-2.2-4.5-4.2-6.8-6
		c-2.9-2.3-5.9-4.5-9-6.3c-6.4-3.9-13.2-6.7-20.3-8.5c-1.6-0.4-3.1-0.7-4.7-1.1c-1.1-0.2-2.2-0.5-3.3-0.8c-4.8-1.1-8.7-2.4-12.3-3.8
		c-4-1.7-7.4-3.8-10.4-6.4c-2.6-2.3-4.8-5-6.7-8.1c-0.7-1.2-1.5-2.4-2.2-3.6c-1.2-2-2.5-4.1-3.7-6.1c-2-3.2-4.3-6.4-6.9-9.5
		c-1.8-2.1-3.6-4.1-5.5-6c-1.6-1.6-3.1-3-4.6-4.3c-2.4-2.1-4.9-4.1-7.5-6l-6.9-5.5l2.5-2.3l17.4-15.9c2.2-2,4.1-4.1,5.9-6.3
		c2.1-2.6,4-5.4,5.6-8.4c0.8-1.4,1.6-2.9,2.4-4.3l1.7-2.9c2.6,1.8,5.2,3.9,7.6,6.1c0.2,0.2,0.3,0.3,0.5,0.4c0.1,0,0.1,0.1,0.2,0.1
		L124,17c0,0.1,0.1,0.2,0.2,0.3c1.8,1.9,3.5,4.1,5.2,6.4c2,2.9,3.9,5.9,5.5,9.2c2.1,4.4,3.9,9.3,5.2,14.4c0.4,1.8,1,3.5,1.6,5.1
		c1.3,3.5,2.9,7.1,4.9,11.2c3,6.1,6,10.9,9.2,15c1.7,2.1,3.2,3.9,4.7,5.5c1.1,1.1,2.1,2.1,3.1,3.1c1.2,1.1,2.4,2.2,3.8,3.4
		c0.7,0.6,1.4,1.2,2.1,1.8c1,0.8,2,1.7,2.9,2.6c2.1,1.9,4,3.8,5.9,5.9c2.1,2.3,4.1,4.7,5.9,7.2c2.1,2.9,3.9,5.7,5.4,8.5
		c2.6,4.9,4.9,10.3,6.7,16C196.9,134.7,197.4,136.6,197.7,138.4L197.7,138.4z"/>
	<g>
		<path fill="#F4CB68" d="M96.6,42c5.3-4.5,10.3-9.4,15-14.6c1.9-2.3,7.2-7.2,9.9-3.3c2.5,3.7,0.3,9.3-2.4,12.3
			c-4.4,4.8-9,9.3-13.9,13.4c-3.2,2.8-8.3,4.2-12,1.7C89.2,48.8,94.4,43.7,96.6,42z M102.2,47.4c5.3-4.4,10.2-9.2,14.8-14.3
			c1.8-2.1,1.9-3.6,1.2-4.5c-0.8-1-1.9-0.7-3.7,1.4c-4.8,5.3-9.8,10.2-15.2,14.8c-2.2,1.7-2.5,2.8-1.5,3.6
			C98.6,49.1,100.1,49.1,102.2,47.4z M101.6,55.7c8.8-6.5,16.4-13.9,23.3-22.6c0.7-0.9,1.3-1.1,1.7-0.4c0.9,1.6,1.4,2.4,2.2,4
			c1.9,3.8,0.4,8.7-2.3,11.6c-0.5,0.6-0.8,0.9-1.3,1.6c-1.5,1.5-3.4,3.6-5.8,2.6c0,0,0,0-0.1,0.1c0.4,2.8-1.8,5.3-3.7,6.8
			c-1.4,1.2-2.9,2.4-4.4,3.5c-0.7,0.5-1.2,0.9-1.7,1.3c-0.2,0.2-0.3,0.3-0.4,0.4c-0.6,0.4-1.2,0.3-1.6-0.2s-0.6-0.7-1-1.2
			c-0.5-0.5-0.4-1.2,0.3-1.8c0.4-0.3,1-0.8,2.1-1.6c1.7-1.2,3.3-2.4,4.8-3.8c1.5-1.1,2.9-2.9,1.7-4.7c-0.3-0.4-0.5-0.6-0.8-1.1
			c-3.3,2.9-6.7,5.6-10.3,8.2c-0.9,0.6-1.8,0.6-2.3,0.1c-0.4-0.4-0.6-0.6-1-1C100.4,57,100.6,56.3,101.6,55.7z M118.9,47.9
			c0.8,1.2,1.9,1.3,3.7-0.7c0.7-0.8,1.1-1.2,1.8-2c1.6-1.9,2-3.3,1.3-4.5c-0.3-0.6-0.5-0.9-0.9-1.5c-2.1,2.6-4.4,5.2-6.7,7.6
			C118.5,47.2,118.6,47.5,118.9,47.9z M112.3,68.2c7.2-6.8,13.2-14.5,18.6-22.9c0.2-0.3,0.2-0.3,0.2-0.4c0.5-0.8,1-0.8,1.3-0.1
			c0.2,0.5,0.3,0.8,0.5,1.4c0.3,0.7,0.1,1.6-0.5,2.6c-4.3,6.7-8.9,13-14.4,18.7c0,0,0,0,0,0.1c5.8-4,11-8.6,15.9-13.9
			c0.6-0.7,1-0.7,1.2,0.1c0.1,0.4,0.2,0.6,0.3,1.1c0.2,0.7,0.1,1.6-0.4,2.3c-0.1,0.1-0.1,0.1-0.2,0.3c-5.9,6.2-12.2,11.3-19.6,15.4
			c-0.8,0.4-1.4,0.2-1.8-0.4c-0.6-0.9-0.9-1.4-1.6-2.3C111.5,69.4,111.6,68.8,112.3,68.2z M118.3,77.1c6.7-5.1,12.3-11.1,17.4-18
			c0.5-0.8,1-0.8,1.3-0.1c0.2,0.5,0.3,0.8,0.5,1.4c0.3,0.7,0.2,1.6-0.3,2.4c-4.9,6.7-10.2,12.6-16.7,17.6c-0.7,0.5-1.3,0.3-1.7-0.3
			c-0.3-0.5-0.5-0.7-0.8-1.2C117.5,78.3,117.6,77.6,118.3,77.1z M122,82.7c6.3-4.9,11.6-10.6,16.3-17.2c0.5-0.7,1-0.8,1.3,0
			c0.2,0.5,0.4,0.8,0.6,1.3c0.3,0.7,0.3,1.6-0.2,2.3c-4,5.8-8.4,10.8-13.7,15.2c1.3,1.6,2,2.3,3.5,3.7c0.6,0.5,0.5,1.1,0,1.5
			c-0.3,0.2-0.5,0.4-0.8,0.6c-0.6,0.4-1.3,0.4-1.9-0.1c-1.9-1.8-3.6-3.6-5.3-5.6C121.2,83.8,121.4,83.2,122,82.7z M130.3,91.3
			c5.4-4.3,9.8-9.1,13.6-14.9c0.4-0.6,0.8-0.6,1.2,0c0.3,0.5,0.4,0.7,0.7,1.2c0.4,0.7,0.5,1.4,0.1,2c-3.2,4.9-6.7,9-11.1,12.7
			c1.6,1.2,2.5,1.7,4.2,2.8c0.6,0.4,0.7,0.8,0.2,1.2c-0.3,0.2-0.4,0.3-0.7,0.5c-0.5,0.3-1.2,0.3-1.9,0c-2.2-1.3-4.4-2.6-6.5-4
			C129.7,92.3,129.7,91.7,130.3,91.3z M140.3,97.6c4.4-3.3,7.8-6.8,10.8-11.5c0.3-0.5,0.7-0.5,1.2,0.1c1.8,2,3.6,3.9,5.5,5.8
			c0.5,0.5,0.8,1.1,0.6,1.5c-0.1,0.2-0.2,0.3-0.3,0.5c-0.2,0.4-0.7,0.3-1.2-0.2c-1.6-1.4-2.4-2.1-3.9-3.6c-0.9,1.5-1.4,2.1-2.4,3.4
			c1.2,0.9,1.9,1.4,3.2,2.3c0.6,0.4,0.8,0.9,0.5,1.2c-0.2,0.2-0.2,0.3-0.4,0.4c-0.3,0.3-0.9,0.2-1.5-0.2c-1.3-0.8-2-1.3-3.3-2.1
			c-1.4,1.4-2.2,2-3.9,3.2c1.9,1,2.8,1.4,4.7,2.3c0.7,0.3,0.8,0.7,0.4,0.9c-0.2,0.1-0.3,0.2-0.6,0.3c-0.4,0.2-1.1,0.2-1.8-0.1
			c-2.4-1-4.8-2.1-7.2-3.2C139.9,98.4,139.8,98,140.3,97.6z M96.6,42c5.3-4.5,10.3-9.4,15-14.6c1.9-2.3,7.2-7.2,9.9-3.3
			c2.5,3.7,0.3,9.3-2.4,12.3c-4.4,4.8-9,9.3-13.9,13.4c-3.2,2.8-8.3,4.2-12,1.7C89.2,48.8,94.4,43.7,96.6,42z M102.2,47.4
			c5.3-4.4,10.2-9.2,14.8-14.3c1.8-2.1,1.9-3.6,1.2-4.5c-0.8-1-1.9-0.7-3.7,1.4c-4.8,5.3-9.8,10.2-15.2,14.8
			c-2.2,1.7-2.5,2.8-1.5,3.6C98.6,49.1,100.1,49.1,102.2,47.4z M101.6,55.7c8.8-6.5,16.4-13.9,23.3-22.6c0.7-0.9,1.3-1.1,1.7-0.4
			c0.9,1.6,1.4,2.4,2.2,4c1.9,3.8,0.4,8.7-2.3,11.6c-0.5,0.6-0.8,0.9-1.3,1.6c-1.5,1.5-3.4,3.6-5.8,2.6c0,0,0,0-0.1,0.1
			c0.4,2.8-1.8,5.3-3.7,6.8c-1.4,1.2-2.9,2.4-4.4,3.5c-0.7,0.5-1.2,0.9-1.7,1.3c-0.2,0.2-0.3,0.3-0.4,0.4c-0.6,0.4-1.2,0.3-1.6-0.2
			s-0.6-0.7-1-1.2c-0.5-0.5-0.4-1.2,0.3-1.8c0.4-0.3,1-0.8,2.1-1.6c1.7-1.2,3.3-2.4,4.8-3.8c1.5-1.1,2.9-2.9,1.7-4.7
			c-0.3-0.4-0.5-0.6-0.8-1.1c-3.3,2.9-6.7,5.6-10.3,8.2c-0.9,0.6-1.8,0.6-2.3,0.1c-0.4-0.4-0.6-0.6-1-1
			C100.4,57,100.6,56.3,101.6,55.7z M118.9,47.9c0.8,1.2,1.9,1.3,3.7-0.7c0.7-0.8,1.1-1.2,1.8-2c1.6-1.9,2-3.3,1.3-4.5
			c-0.3-0.6-0.5-0.9-0.9-1.5c-2.1,2.6-4.4,5.2-6.7,7.6C118.5,47.2,118.6,47.5,118.9,47.9z M112.3,68.2c7.2-6.8,13.2-14.5,18.6-22.9
			c0.2-0.3,0.2-0.3,0.2-0.4c0.5-0.8,1-0.8,1.3-0.1c0.2,0.5,0.3,0.8,0.5,1.4c0.3,0.7,0.1,1.6-0.5,2.6c-4.3,6.7-8.9,13-14.4,18.7
			c0,0,0,0,0,0.1c5.8-4,11-8.6,15.9-13.9c0.6-0.7,1-0.7,1.2,0.1c0.1,0.4,0.2,0.6,0.3,1.1c0.2,0.7,0.1,1.6-0.4,2.3
			c-0.1,0.1-0.1,0.1-0.2,0.3c-5.9,6.2-12.2,11.3-19.6,15.4c-0.8,0.4-1.4,0.2-1.8-0.4c-0.6-0.9-0.9-1.4-1.6-2.3
			C111.5,69.4,111.6,68.8,112.3,68.2z M118.3,77.1c6.7-5.1,12.3-11.1,17.4-18c0.5-0.8,1-0.8,1.3-0.1c0.2,0.5,0.3,0.8,0.5,1.4
			c0.3,0.7,0.2,1.6-0.3,2.4c-4.9,6.7-10.2,12.6-16.7,17.6c-0.7,0.5-1.3,0.3-1.7-0.3c-0.3-0.5-0.5-0.7-0.8-1.2
			C117.5,78.3,117.6,77.6,118.3,77.1z M122,82.7c6.3-4.9,11.6-10.6,16.3-17.2c0.5-0.7,1-0.8,1.3,0c0.2,0.5,0.4,0.8,0.6,1.3
			c0.3,0.7,0.3,1.6-0.2,2.3c-4,5.8-8.4,10.8-13.7,15.2c1.3,1.6,2,2.3,3.5,3.7c0.6,0.5,0.5,1.1,0,1.5c-0.3,0.2-0.5,0.4-0.8,0.6
			c-0.6,0.4-1.3,0.4-1.9-0.1c-1.9-1.8-3.6-3.6-5.3-5.6C121.2,83.8,121.4,83.2,122,82.7z M130.3,91.3c5.4-4.3,9.8-9.1,13.6-14.9
			c0.4-0.6,0.8-0.6,1.2,0c0.3,0.5,0.4,0.7,0.7,1.2c0.4,0.7,0.5,1.4,0.1,2c-3.2,4.9-6.7,9-11.1,12.7c1.6,1.2,2.5,1.7,4.2,2.8
			c0.6,0.4,0.7,0.8,0.2,1.2c-0.3,0.2-0.4,0.3-0.7,0.5c-0.5,0.3-1.2,0.3-1.9,0c-2.2-1.3-4.4-2.6-6.5-4
			C129.7,92.3,129.7,91.7,130.3,91.3z M140.3,97.6c4.4-3.3,7.8-6.8,10.8-11.5c0.3-0.5,0.7-0.5,1.2,0.1c1.8,2,3.6,3.9,5.5,5.8
			c0.5,0.5,0.8,1.1,0.6,1.5c-0.1,0.2-0.2,0.3-0.3,0.5c-0.2,0.4-0.7,0.3-1.2-0.2c-1.6-1.4-2.4-2.1-3.9-3.6c-0.9,1.5-1.4,2.1-2.4,3.4
			c1.2,0.9,1.9,1.4,3.2,2.3c0.6,0.4,0.8,0.9,0.5,1.2c-0.2,0.2-0.2,0.3-0.4,0.4c-0.3,0.3-0.9,0.2-1.5-0.2c-1.3-0.8-2-1.3-3.3-2.1
			c-1.4,1.4-2.2,2-3.9,3.2c1.9,1,2.8,1.4,4.7,2.3c0.7,0.3,0.8,0.7,0.4,0.9c-0.2,0.1-0.3,0.2-0.6,0.3c-0.4,0.2-1.1,0.2-1.8-0.1
			c-2.4-1-4.8-2.1-7.2-3.2C139.9,98.4,139.8,98,140.3,97.6z"/>
	</g>
	<g>
		<path fill="#885C00" d="M39.8,97c-4-27,27-39.5,39-39.5c20.5,0,39.8,17.4,43.1,32.9c2.5,11.7-2.5,20.8-2.5,25.7"/>
	</g>
	<g>
		<path fill="#885C00" d="M43,129.4V99.8c-7.1,19.1-15.8,20.5-23.2,22.7c-5.2,1.5-9.9,0.8-11.1,3.6c-1.9,4.6,7.2,15.9,17,16.1
			c7.2,0.1,12.4-5.7,17.5-11.8C43,130.1,43,129.7,43,129.4z"/>
	</g>
	<g>
		<path fill-rule="evenodd" fill="#FAE5B8" d="M98.1,104.5l-4,82.8c3.3-0.2,6.6-0.4,9.7-0.7l5.8-82.1
			C109.6,104.5,98.1,104.5,98.1,104.5z"/>
	</g>
	<g>
		<path fill-rule="evenodd" fill="#CB4417" d="M40.4,104.5l8.3,81.1c3,0.4,6.3,0.8,9.7,1.1l-6.6-82.2L40.4,104.5L40.4,104.5z"/>
	</g>
	<g>
		<path fill-rule="evenodd" fill="#FAE5B8" d="M52,104.5l5.8,82.1c3.1,0.3,6.3,0.5,9.7,0.7l-4-82.8H52z"/>
	</g>
	<g>
		<path fill-rule="evenodd" fill="#CB4417" d="M63.8,104.5l3.3,82.8c3.1,0.2,6.3,0.3,9.6,0.3l-1.4-83.1
			C75.3,104.5,63.8,104.5,63.8,104.5z"/>
	</g>
	<g>
		<g>
			<path fill-rule="evenodd" fill="#FAE5B8" d="M75,104.5l1.2,83.1c1.5,0,3,0,4.6,0c1.7,0,3.4,0,5,0l0.7-83.1
				C86.5,104.5,75,104.5,75,104.5z"/>
		</g>
	</g>
	<g>
		<path fill-rule="evenodd" fill="#CB4417" d="M86.3,104.5l-1.4,83.1c3.3,0,6.5-0.2,9.6-0.3l3.3-82.8H86.3z"/>
	</g>
	<g>
		<path fill-rule="evenodd" fill="#CB4417" d="M109.9,104.5l-6.6,82.2c3.4-0.3,6.7-0.7,9.7-1.1l8.3-81L109.9,104.5L109.9,104.5z"/>
	</g>
	<g>
		<path fill-rule="evenodd" fill="#F4CB68" d="M84.8,100.7C84.8,100.7,84.8,100.6,84.8,100.7v-9.3H64.6v8.8l-3.2,2.4H41.3
			c-0.1,2.4,1.4,4.9,3.5,5.4c0.9,0.2,1.7,0.3,2.3,0.2c1.6,1.8,4.2,2.8,5.9,2.1c0.2,0.9,0.5,1.7,1.1,2.3c0.9,0.9,2.2,1.4,3.6,1.3
			c1.5-0.1,3-0.8,4-2c0.1-0.1,0.2-0.3,0.2-0.4c0.5,0.1,1.1,0.2,1.6,0.1c1.2-0.2,2.4-0.9,3.3-2c0.8-1.1,1.3-2.4,1.3-3.8
			c0.5,0.5,1.1,1,1.9,1.3c0.4,0.2,0.9,0.3,1.3,0.4v0.1c0.7,3.1,3.4,5.4,6.5,5.4c2.5,0.1,4.9-1.4,6.2-3.7c0.1-0.2,0.1-0.5,0-0.7
			c0.7,0,1.4-0.1,2-0.3c0.5-0.2,1.1-0.5,1.5-0.9c0.4,2,1.9,3.8,3.9,4.4c0.7,0.2,1.3,0.2,2,0.2c0.5,0.7,1.2,1.2,1.9,1.6
			c1.4,0.6,3.2,0.6,4.8-0.2c1.3-0.6,2.2-1.6,2.5-2.8c0.1-0.3,0.1-0.5,0.1-0.8c0.3-0.1,0.6-0.2,0.8-0.3v-6.1h-16L84.8,100.7z"/>
	</g>
	<g>
		<path fill="#885C00" d="M102.2,94.9c0.4,18.7,4.3,34.1,9.4,40.2c5.3,6.5,10.8,12.8,20.1,13c12.6,0.3,26.6-10.8,25.1-15.6
			c-0.9-2.9-6.9-4.2-13.5-4.3c-21.5-0.3-24.3-14.3-20.6-28.5"/>
	</g>
	<path fill="#936037" d="M116.9,107.2c1.8,1.3,3.4,2.5,4.7,3.5l1.1-10c-2.9-2.9-7.3-6.6-13.2-9.9c-0.1-0.8-0.2-1.6-0.5-2.4
		c-1.6-5-5.8-7.4-7.4-8.2c-6.5-3.6-13.2-1.6-14.9-1.1c-2.1,0.7-5.3,1.8-7.3,4.7c-0.3,0-0.5-0.1-0.8-0.1c-2.5-0.3-5-0.3-7.4-0.1
		c-1.7,0.2-3.4,0.4-5,0.6c-0.2-0.3-0.4-0.5-0.6-0.8c-2.6-3-6.4-3.5-8.8-3.8c-1.8-0.2-8.7-0.8-14.4,4c-1.3,1.1-5,4.3-5.6,9.5
		c-0.5,4.6,1.7,8,2.6,9.3c0.2,0.3,0.5,0.7,0.8,1.2l0.4,4.3c0.5-0.6,1.1-1.2,1.8-1.9c1.2,1.1,2.8,2.1,4.8,2.7
		c4.8,1.4,8.8-0.5,10.4-1.2c0.7-0.3,8.1-3.9,9.9-12.1c0.1-0.3,0.1-0.6,0.2-1.1c2.9-0.4,6.1-0.6,9.6-0.5c0.3,0,0.5,0,0.8,0
		c0.4,1.3,0.8,2.3,1.1,2.9c3.4,7.7,11.4,9.7,12.1,9.9c1.8,0.4,6.1,1.4,10.5-0.9c2.3-1.2,3.8-2.9,4.8-4.5c0.6,0.3,1.3,0.6,1.9,1
		c-0.3,9.5,2.4,20,7,28.4c1,1.8,3.2,2.2,4.7,0.8c0.1-0.1,0.1-0.1,0.2-0.2l0,0c1-1.1,1.7-2.5,2-4c0.2-1.2,0.2-2.7-0.7-3.7
		C118,119.1,116.8,112.9,116.9,107.2z"/>
	<path fill="#683C11" d="M53,81.5c-2.5,0-6.3,0.6-9.5,3.4c-1,0.9-4.1,3.5-4.5,7.8c-0.4,3.8,1.5,6.7,2.1,7.7s2.6,4,6.5,5.2
		c1,0.3,2,0.4,3,0.4c2.6,0,4.6-0.9,5.6-1.4c0.4-0.2,2-1,3.6-2.5c2.2-2,3.7-4.5,4.3-7.3c0.1-0.7,0.5-2.2,0.4-4
		c-0.1-2.4-0.8-4.4-2.2-5.9c-2.3-2.6-5.4-3-7.3-3.2C54.3,81.6,53.6,81.5,53,81.5"/>
	<g>
		<path fill="#B8AC47" d="M61.6,85.3c2.7,3,1.7,7.3,1.4,8.6c-1.3,5.9-6.6,8.5-7.1,8.7c-1.2,0.5-4.1,1.9-7.5,0.9
			c-3.3-1-5-3.6-5.6-4.5s-2.2-3.4-1.8-6.7c0.4-3.8,3-6,4-6.8c4.1-3.5,9-3,10.3-2.9C57,82.8,59.7,83.1,61.6,85.3z"/>
	</g>
	<g>
		<path fill="#D3C684" d="M50.7,82.7l-0.9,3.4l0,0l-4.3,15.7c0.2,0.2,0.5,0.4,0.8,0.6l0.6-2.1l0,0l4.8-17.7
			C51.3,82.6,51,82.6,50.7,82.7z"/>
		<path fill="#D3C684" d="M44.8,101.3l0.6-2.2l0,0l4.4-16.2c-1.6,0.4-3.3,1.2-4.8,2.5c-0.4,0.3-1,0.9-1.7,1.7l-0.9,3.3l0,0l-1.2,4.5
			c0.4,1.9,1.3,3.3,1.7,4C43.1,99.4,43.8,100.4,44.8,101.3z"/>
	</g>
	<circle fill="#F2C897" cx="118.8" cy="126.8" r="1.5"/>
	<circle fill="#F2C897" cx="116.4" cy="123.1" r="1.3"/>
	<circle fill="#F2C897" cx="114.5" cy="119.1" r="1"/>
	<g>
		
			<ellipse transform="matrix(0.9998 -1.893504e-02 1.893504e-02 0.9998 -2.497 1.6749)" fill="#FCF2DD" cx="87.2" cy="132.7" rx="7.6" ry="16.3"/>
	</g>
	<g>
		
			<ellipse transform="matrix(0.9998 -1.893504e-02 1.893504e-02 0.9998 -2.4933 1.2696)" fill="#FCF2DD" cx="65.8" cy="132.3" rx="7.6" ry="16.3"/>
	</g>
	<g>
		<path fill="#F4CB68" d="M110.8,154.6c-0.1-0.1-0.3-0.1-0.4,0c-0.7,0.2-1.6,0.5-2.7,0.8c-2.5,0.6-3.7,0.9-4.9,1c-3.2,0.2-5.8-1-8-2
			c-1.9-0.9-1.7-1.1-4.4-2.7c-3.9-2.2-6.2-3.5-9.2-3.5c-1.1,0-3.6,0-5.6,1.7c-0.2,0.2-0.4,0.3-0.5,0.5c-0.2-0.2-0.3-0.3-0.5-0.5
			c-2-1.7-4.4-1.7-5.6-1.7c-3.1,0-5.4,1.3-9.2,3.5c-2.7,1.5-2.4,1.7-4.4,2.7c-2.1,1-4.7,2.2-8,2c-1.3-0.1-2.5-0.4-4.9-1
			c-1.1-0.3-2-0.5-2.7-0.8c-0.1,0-0.3,0-0.4,0c-0.2,0.1-0.3,0.4-0.2,0.6c0.9,1.8,2.6,4.7,5.9,7c0.8,0.6,2.6,1.8,5.3,2.3
			c2.9,0.6,5.1,0.2,7.4-0.3c1.4-0.3,3.5-0.6,5.7-1.6l0,0c0.1,0.3-0.1,0.6-0.5,1.1c-0.7,0.9-1.3,1.1-1.3,1.4c0.1,0.4,0.5,0.6,0.6,0.6
			c1.4,0.7,6.5,0.6,10.6-3c0.6-0.5,1.4-1.3,2.1-2.3c0.8,1,1.5,1.8,2.1,2.3c4.1,3.7,9.2,3.7,10.6,3c0.2-0.1,0.6-0.3,0.6-0.6
			c0.1-0.4-0.5-0.5-1.3-1.4c-0.4-0.5-0.5-0.8-0.5-1.1l0,0c2.2,1,4.3,1.3,5.7,1.6c2.3,0.4,4.5,0.9,7.4,0.3c2.7-0.6,4.5-1.8,5.3-2.3
			c3.3-2.2,5-5.2,5.9-7C111.1,155,111,154.7,110.8,154.6z"/>
	</g>
	<g>
		<path fill="#FAE5B8" d="M78.3,142.3c-1.2-1.6-3.1-2.4-5.2-2c-2.8,0.5-4.7,3.3-4.2,6.1s3.3,4.7,6.1,4.2c1.6-0.3,3-1.4,3.7-2.7"/>
	</g>
	<path fill="#683C11" d="M106.9,88.3c-1.3-4.2-4.8-6.1-6-6.8c-2.1-1.1-4.3-1.7-6.8-1.7c-2.2,0-4,0.5-5.1,0.8
		c-1.8,0.6-4.8,1.6-6.5,4.6c-1,1.8-1.4,3.9-1,6.3c0.3,1.8,0.9,3.2,1.2,3.8c1.1,2.6,3.1,4.7,5.7,6.3c1.9,1.1,3.6,1.6,4.1,1.7
		c0.7,0.2,2,0.5,3.5,0.5c1.8,0,3.5-0.4,5.1-1.2c3.6-1.9,4.9-5.2,5.3-6.3C106.8,95.2,108.1,92,106.9,88.3z"/>
	<path fill="#FCF2DD" d="M32.5,107.5C32.5,107.5,32.5,107.4,32.5,107.5c-0.2-0.2-0.2-0.3-0.3-0.4l-0.1-0.1c-0.1-0.1-0.1-0.2-0.2-0.2
		l-0.1-0.1c-0.1-0.1-0.2-0.2-0.3-0.3c0,0,0,0-0.1,0c-0.1-0.1-0.3-0.2-0.5-0.3c0,0-0.1,0-0.1-0.1c-0.1-0.1-0.3-0.1-0.4-0.2
		c-0.1,0-0.1,0-0.2-0.1s-0.3-0.1-0.4-0.2c-0.1,0-0.1,0-0.2-0.1c-0.2-0.1-0.3-0.1-0.5-0.1c0,0,0,0-0.1,0c0,0,0.1,0,0.1-0.1
		c0.2-0.1,0.3-0.3,0.5-0.4c0.1,0,0.1-0.1,0.2-0.2s0.3-0.2,0.4-0.4c0.1-0.1,0.1-0.1,0.2-0.2s0.3-0.3,0.4-0.4s0.1-0.1,0.2-0.2
		c0.2-0.2,0.4-0.4,0.5-0.7c2.3-3.2,3.6-8.7,0.7-11.8c-0.2-0.2-0.4-0.4-0.7-0.6c-0.1,0-0.1-0.1-0.2-0.1c-0.2-0.2-0.5-0.3-0.7-0.4
		c0,0-0.1,0-0.1-0.1c-0.2-0.1-0.4-0.2-0.7-0.3c0,0-0.1,0-0.1-0.1c-0.2-0.1-0.5-0.2-0.7-0.2c-0.1,0-0.1,0-0.2,0
		C28.6,89,28.3,89,28.1,89c0,0,0,0-0.1,0c-0.2,0-0.5-0.1-0.7-0.1h-0.1c-0.2,0-0.4,0-0.6,0l0,0c-0.2,0-0.4,0-0.5,0l0,0
		c0-0.5-0.1-1-0.1-1.4c0-0.1,0-0.3-0.1-0.4c0-0.3-0.1-0.6-0.2-1c0-0.1,0-0.2-0.1-0.4c-0.1-0.4-0.2-0.8-0.3-1.2l0,0
		c-0.1-0.4-0.2-0.7-0.3-1.1c0-0.1-0.1-0.2-0.1-0.3c-0.1-0.2-0.2-0.5-0.3-0.7c0-0.1-0.1-0.2-0.1-0.3c-0.1-0.3-0.2-0.6-0.3-0.8
		c-1.8-4.1-3.4-4.5-4-4.6c-0.2,0-0.5,0-0.7,0c-0.5,0.1-0.9,0.2-1.3,0.4c-0.2,0.1-0.4,0.2-0.6,0.3c-0.4,0.2-0.6,0.4-0.9,0.6
		c-0.2,0.2-0.3,0.3-0.4,0.3c-0.2,0.2-0.3,0.3-0.4,0.5c0,0.1-0.1,0.1-0.1,0.2c-0.1,0.1-0.1,0.2-0.2,0.4c0,0.1-0.1,0.1-0.1,0.2
		s-0.1,0.2-0.1,0.3c0,0.1,0,0.2-0.1,0.3c0,0.1-0.1,0.2-0.1,0.4c0,0.1,0,0.2,0,0.3c0,0.1,0,0.3,0,0.4s0,0.2,0,0.3c0,0.1,0,0.3,0,0.5
		c0,0.1,0,0.2,0,0.3c0,0.2,0.1,0.4,0.1,0.6c0,0.1,0,0.2,0,0.3l0,0c-0.3,0.1-0.5,0.1-0.8,0.3c0,0-1.4,0.6-2.1,2
		c-0.1,0.2-0.2,0.4-0.2,0.5v0.1c0,0.1-0.1,0.3-0.1,0.5c0,0,0,0,0,0.1c-0.1,0-0.1,0-0.2,0c-0.1,0-0.2,0-0.3,0s-0.3,0-0.4,0
		c-0.1,0-0.2,0-0.3,0c-0.2,0-0.3,0-0.5,0c-0.1,0-0.2,0-0.3,0c-0.2,0-0.5,0.1-0.7,0.2c-1.1,0.4-1.8,1.1-2.2,1.7
		C7,89,6.8,89.3,6.7,89.5C7,89.8,6.9,90,6.8,90.3c0,0.1,0,0.2-0.1,0.2c0,0.2-0.1,0.3-0.1,0.5c0,0.1,0,0.2,0,0.3c0,0.2,0,0.3-0.1,0.5
		c0,0.1,0,0.2,0,0.3c0,0.2,0,0.4,0,0.5s0,0.2,0,0.3c0,0.2,0,0.4,0.1,0.6c0,0.1,0,0.1,0,0.2c0.1,0.6,0.3,1.1,0.5,1.7
		c0,0.1,0,0.1,0.1,0.2c0.1,0.2,0.2,0.4,0.3,0.6v0.1c0,0.3-0.1,0.5-0.1,0.8c0,0.1,0,0.2,0,0.2c0,0.2,0,0.5,0,0.7c0,0.1,0,0.2,0,0.3
		c0,0.3,0,0.7,0,1c0,0.5,0.2,2.3,0.9,4.2c0.6,1.4,1.4,3,2.9,4c0.5,0.4,1,0.7,1.6,0.9c0.3,0.1,0.6,0.2,0.9,0.3c0.1,0,0.1,0,0.2,0
		c0.3,0.1,0.6,0.1,0.9,0.2l0,0l-0.1,0.1c-0.1,0.1-0.2,0.1-0.2,0.2c-0.2,0.2-0.3,0.3-0.5,0.5c-0.1,0.1-0.1,0.2-0.2,0.2
		c-0.2,0.2-0.3,0.4-0.4,0.5c0,0.1-0.1,0.1-0.1,0.2c-0.2,0.2-0.3,0.5-0.4,0.7c0,0.1,0,0.1-0.1,0.2c-0.1,0.2-0.1,0.4-0.2,0.5
		c0,0.1,0,0.2-0.1,0.2c0,0.2-0.1,0.3-0.1,0.5c0,0.1,0,0.1,0,0.2c0,0.2,0,0.5,0.1,0.7c0.8,2.8,6,3.8,11.6,2.2s9.5-5.2,8.7-8
		C32.6,107.8,32.6,107.6,32.5,107.5z"/>
	<path fill="#FCF2DD" d="M153.9,163c-0.6-1.6-3.2-1.9-3.5-2c-3.7-0.4-4.9,2.9-8.4,2.6c-2.4-0.2-2.7-1.8-5.3-2.1
		c-0.8-0.1-1.5,0-2.2,0.1c0-0.2,0-0.4,0-0.6c0.1-0.7,0-1.3-0.3-1.8c-1.3-1.9-5.8-1.2-9.9,1.6c-3.5,2.4-5.7,5.6-5.4,7.7
		c-0.1,0.7,0,1.3,0.4,1.8c0.6,0.9,1.8,1.2,3.3,1.1c0.1,1.5,0.4,2.7,0.5,3.1c0.3,1.1,0.7,2.3,1.1,3.2c0.8,2.1,1.3,4.3,1.2,6.5
		l-0.2,3.5c-0.1,0.2-0.7,2.5-0.6,4.6c-0.1,1.7,0.2,3.5,1.6,4.3c1.2,0.7,3.2,0.5,4.4-0.3c0.7-0.5,1.1-1.2,1.3-2.2
		c0.2,0.3,1.5,2.2,3.2,2.1c0.3,0,1.8,0,2.8-2c0.3-0.3,0.6-0.7,0.9-1.2c0.1,0,0.2,0.1,0.3,0.1l-0.2,0.9c1.4,0.7,3.4,1.5,5.1,0.6
		c0.2-0.1,0.5-0.3,0.8-0.6c0,0,0.1,0,0.2-0.1c0.6-0.4,2.3-1.8,1.6-9.9c-0.1-0.6-0.1-1.3-0.2-2c-0.2-3.1-0.6-6.9-1.7-11.2
		c1.5,0.1,3.7-0.1,5.8-1.4c1.8-1.1,4.1-3.6,3.8-5.5C154.1,163.8,154.1,163.4,153.9,163z M132,192.6l0.4,0.5l-0.6,1.1
		C131.9,193.8,132,193.2,132,192.6z M144,171.9c-0.1-0.3-0.2-0.6-0.3-0.9c0.2,0,0.3,0,0.5,0.1L144,171.9z"/>
	<g>
		<path fill="#B8AC47" d="M83.2,85.6c-2,3.5-0.2,7.5,0.3,8.7c2.5,5.5,8.2,7,8.7,7.1c1.3,0.3,4.4,1,7.5-0.6s4.2-4.5,4.6-5.5
			s1.5-3.7,0.5-6.9c-1.1-3.6-4.2-5.3-5.3-5.9c-4.7-2.6-9.4-1.2-10.6-0.8C87.2,82.2,84.7,83.1,83.2,85.6z"/>
	</g>
	<g>
		<path fill="#D3C684" d="M93.2,80.9c-2,0.1-3.6,0.5-4.3,0.8c-0.9,0.3-2,0.7-3.1,1.4l-3.4,5.7c-0.2,2.5,0.8,4.8,1.2,5.6
			c0.2,0.5,0.4,0.9,0.7,1.3L93.2,80.9z"/>
		<path fill="#D3C684" d="M84.7,96.3c0.2,0.3,0.4,0.5,0.6,0.8L95.1,81c-0.3,0-0.7-0.1-1-0.1L84.7,96.3z"/>
	</g>
	<path fill="#F2C897" d="M156.3,135.4c-2.6,5.3-14.1,13-24.6,12.8c-1.6,0-3.1-0.3-4.5-0.6v0.1c0,1.6,1.2,2.9,2.8,2.9
		c1,0,2-0.5,2.5-1.4c0.4,1,1.4,1.8,2.6,1.8c1.2,0,2.2-0.7,2.7-1.7c0.5,0.5,1.2,0.8,1.9,0.8c1.1,0,2.1-0.6,2.6-1.6
		c0.5,0.5,1.2,0.8,1.9,0.8c1.5,0,2.7-1,2.9-2.5c0.4,0.2,0.7,0.3,1.2,0.3c1.6,0,2.9-1.2,2.9-2.8c0-0.1,0-0.1,0-0.2l0,0
		c1.6,0,2.9-1.2,2.9-2.8c0-0.4-0.1-0.7-0.2-1.1c0.3,0.1,0.7,0.2,1,0.2c1.6,0,2.9-1.2,2.9-2.8C157.7,136.8,157.1,135.9,156.3,135.4z"
		/>
</g>
<g id="Black">
	<g>
		<path fill="#27271F" d="M100,81.5c-2-1.1-4.2-1.7-6.5-1.7c-2.1,0-3.9,0.4-4.9,0.8c-1.7,0.6-4.6,1.6-6.2,4.4
			c-1,1.7-1.3,3.7-0.9,5.9c0.3,1.7,0.9,3.1,1.2,3.7c2.6,5.9,8.7,7.5,9.4,7.7c0.7,0.2,1.9,0.4,3.4,0.4c1.7,0,3.4-0.4,4.8-1.2
			c3.4-1.8,4.7-5,5.1-6.1s1.6-4.1,0.5-7.6C104.5,84,101.1,82.1,100,81.5z M104.3,95.2c-0.4,1-1.5,3.9-4.6,5.5
			c-1.5,0.8-3,1.1-4.4,1.1s-2.5-0.3-3.1-0.4c-0.5-0.1-6.2-1.6-8.7-7.1c-0.5-1.1-2.3-5.2-0.3-8.7c1.4-2.5,4-3.4,5.6-3.9
			c0.7-0.2,2.4-0.8,4.6-0.8c1.8,0,3.9,0.4,6,1.5c1.1,0.6,4.1,2.3,5.3,5.9C105.8,91.5,104.7,94.2,104.3,95.2z"/>
		<path fill="#27271F" d="M48.1,104.4c0.9,0.3,1.9,0.4,2.8,0.4c2.5,0,4.4-0.9,5.4-1.3c0.6-0.3,6.3-3.1,7.7-9.4
			c0.1-0.6,0.5-2.1,0.4-3.9c-0.1-2.2-0.8-4.1-2.1-5.6c-2.1-2.5-5.2-2.8-7-3.1c-0.6-0.1-1.3-0.1-1.9-0.1v1v-1c-2.5,0-6,0.6-9.2,3.2
			c-0.5,0.4-1.5,1.3-2.4,2.5c-1.1,1.5-1.8,3.2-2,5c-0.4,3.7,1.3,6.3,2,7.3C42.6,100.4,44.4,103.3,48.1,104.4z M41,92.2
			c0.4-3.8,3-6,4-6.8c2.9-2.5,6.4-3,8.5-3c0.8,0,1.4,0.1,1.8,0.1c1.8,0.2,4.4,0.6,6.3,2.7c2.7,3,1.7,7.3,1.4,8.6
			c-1.3,5.9-6.6,8.5-7.1,8.7c-0.9,0.4-2.7,1.2-4.9,1.2c-0.8,0-1.6-0.1-2.5-0.4c-3.3-1-5-3.6-5.6-4.5C42.2,98,40.6,95.5,41,92.2z"/>
	</g>
	<g>
		<path fill="#27271F" d="M110.5,4.1c0.1,0,0.1,0,0.2,0.1c0.4,0.3,0.8,0.5,1.2,0.8c0.1-0.1,0.2-0.3,0.3-0.4c0.5-0.7,0.4-1.7-0.3-2.2
			c-0.7-0.5-1.7-0.4-2.2,0.3c-0.3,0.4-0.6,0.7-0.9,1.1C109.6,3.7,110,3.8,110.5,4.1z"/>
		<path fill="#27271F" d="M102.1,107.2C102.1,107.2,102.2,107.2,102.1,107.2c0.1,0,0.1,0.2,0.1,0.3
			C102.2,107.5,102.1,107.4,102.1,107.2z"/>
		<path fill="#27271F" d="M73.9,44.8l5.7-4.2l9.6-8.7c5.7-6.3,11.3-12.8,16.8-19.5c1.2-2.1,2.3-4.2,3.5-6.3c-0.7-0.3-1.4-0.5-2-0.5
			C99,16.2,90.2,26.4,81.2,36c-2.7,2.9-5.4,5.7-8.2,8.5C73.4,44.4,73.6,44.6,73.9,44.8z"/>
	</g>
</g>
<g>
	<path fill="#2C2C22" d="M110.5,4.1c0.1,0,0.1,0,0.2,0.1c0.4,0.3,0.8,0.5,1.2,0.8c0.1-0.1,0.2-0.3,0.3-0.4c0.5-0.7,0.4-1.7-0.3-2.2
		c-0.7-0.5-1.7-0.4-2.2,0.3c-0.3,0.4-0.6,0.7-0.9,1.1C109.6,3.7,110,3.8,110.5,4.1z"/>
	<path fill="#2C2C22" d="M102.1,107.2c0,0,0.1,0,0.1-0.1c0,0.1,0,0.3,0,0.4C102.2,107.5,102.1,107.4,102.1,107.2z"/>
	<path fill="#2C2C22" d="M73.9,44.8l5.7-4.2l9.6-8.7c5.7-6.3,11.3-12.8,16.8-19.5c1.2-2.1,2.3-4.2,3.5-6.3c-0.7-0.3-1.4-0.5-2-0.5
		c-8.5,10.6-17.3,20.8-26.3,30.4c-2.7,2.9-5.4,5.7-8.2,8.5C73.4,44.4,73.6,44.6,73.9,44.8z"/>
</g>
<path fill="#2C2C22" d="M157.4,135.3c0.4-1,0.5-2,0.2-2.8c-0.5-1.6-2.2-2.9-5.1-3.7c-2.4-0.7-5.5-1.1-9.1-1.1
	c-8.5-0.1-14.6-2.4-18-6.9c-1.9-2.6-2.9-5.6-3.1-8.8l1.3-11.6l-0.1-0.1c0-0.1,0-0.1,0-0.2h-0.1c0.2-3,0.2-6.3-0.6-9.8
	c-0.8-3.9-2.7-8-5.4-12c-2.7-3.9-6.1-7.6-10-10.8c-8.7-7-18.8-10.8-28.5-10.8c-4.3,0-10.2,1.5-15.8,3.9c-1.6,0.7-3.3,1.6-5.2,2.6
	c5.4-4.9,10.7-10,16-15.3c0.1-0.5-0.6-1-0.9-1.4c-0.6-0.2-1.1-0.4-1.6-0.5c-5.9,5.9-11.8,11.5-17.7,16.8c-8.8,7.6-18,14.7-27.4,21.6
	c-0.3-1.1-0.7-2.2-1.1-3.2c-1.4-3.2-2.9-4.8-4.7-5c-2.3-0.2-4.3,1.7-4.5,1.9c-1.2,1.2-1.6,2.7-1.3,4.9c-0.1,0-0.1,0-0.2,0.1
	c-0.1,0-1.6,0.7-2.5,2.4c-0.1,0.2-0.2,0.5-0.3,0.7c-0.7-0.1-1.5,0-2.3,0.3c-0.9,0.3-2.2,1.1-3.1,2.8c-0.9,1.8-0.9,4.1-0.1,6.3
	c0.1,0.3,0.3,0.6,0.4,0.9c-0.1,0.6-0.1,1.1-0.1,1.7C5.3,99,4,99.8,2.7,100.6c-1.3,0.8-1.7,2.6-0.8,3.9c0.9,1.2,2.6,1.5,3.8,0.7
	c0.6-0.4,1.2-0.8,1.8-1.3c1,2.6,2.7,4.4,4.9,5.3c0.2,0.1,0.4,0.1,0.7,0.2c-1.3,1.5-1.9,3.1-1.5,4.5c0.5,1.7,2.1,2.8,4.6,3.3
	c0.8,0.1,1.6,0.2,2.5,0.2h0.8c0.4,1.2,0.8,2.3,1.2,3.4c-0.5,0.1-1,0.3-1.4,0.4c-1.7,0.5-3.4,0.8-5,1c-3.2,0.5-5.9,0.9-6.9,3.4
	c-0.8,2-0.2,4.8,1.8,7.9c1.7,2.6,4.1,5,6.8,6.7c3.1,2.1,6.4,3.2,9.6,3.2h0.3c4.2,0,7.7-1.9,10.9-4.5c0.5,0.3,1.1,0.6,1.6,0.8
	c1.8,0.8,3.3,1.2,4.7,1.2h0.1l1.4,14.1c-0.6-0.1-1.3-0.3-2.1-0.5c-0.9-0.2-1.8-0.5-2.7-0.7c-0.4-0.1-0.8-0.1-1.1,0.1
	c-0.5,0.3-0.7,1-0.5,1.6c1,2.1,2.9,5.1,6.2,7.3c0.2,0.2,0.6,0.4,1,0.6l2.3,22.8l0.6,0.1c2.7,0.4,5.6,0.7,8.5,1l0.7,0.1
	c0.1,0,0.1,0,0.2,0h0.4l0.9,0.1c2.3,0.2,4.7,0.4,7.1,0.5h0.7c0.1,0,0.1,0,0.2,0s0.1,0,0.2,0h0.9c2.4,0.1,4.7,0.2,7.2,0.2h1.1
	c0.1,0,0.2,0,0.2,0h10c2.2,0,4.5-0.1,6.7-0.2h0.9c0.1,0,0.1,0,0.2,0c0.1,0,0.1,0,0.2,0h0.7c2.5-0.1,4.9-0.3,7.3-0.5l0.9-0.1h0.4
	l0.7-0.1c3-0.3,6-0.6,8.7-1l0.6-0.1l2.8-27.8c1.5,1.6,3,3.4,4.3,5.3c-0.8,0.8-1.4,1.6-1.9,2.5c-1.1,1.9-1.3,3.6-0.4,4.8
	c0.6,0.9,1.8,1.4,3.2,1.4c0.1,0.7,0.2,1.6,0.4,2.5c0.3,1,0.6,2.2,1.1,3.3c0.9,2.2,1.3,4.5,1.2,6.9l-0.2,3.5c-0.3,1.1-1.9,7,1.4,8.9
	c0.6,0.4,1.4,0.5,2.2,0.5c1.1,0,2.2-0.3,3-0.9c0.5-0.4,0.9-0.8,1.1-1.3c0.7,0.7,1.6,1.3,2.8,1.3c0.1,0,0.1,0,0.2,0
	c1.4-0.1,2.6-0.9,3.3-2.2c0,0,0,0,0.1,0.1c1.4,0.7,2.7,1.1,3.8,1.1c0.7,0,1.4-0.2,2-0.5c0.5-0.3,1.2-0.8,1.8-2.4
	c0.7-1.8,1-4.5,1-8.1c0-4.4-0.6-8.8-1.6-13.2c1.5,0,3.4-0.4,5.2-1.5c2-1.3,4.9-4.3,4-6.7c-0.8-2-3.6-2.4-4.1-2.4
	c-2.1-0.2-3.6,0.6-4.8,1.4c-1.1,0.7-2.1,1.3-3.6,1.2c-1-0.1-1.5-0.4-2.2-0.9c-0.8-0.5-1.6-1.1-3.1-1.2h-1.5c0-0.7-0.1-1.4-0.5-1.9
	c-0.8-1.2-2.5-1.7-4.7-1.3c-0.1,0-0.1,0-0.2,0c-3.7-5.6-8.5-10.1-12-13l0.2-2.1c2.3,1.9,5,3.7,8.2,4.6c0.2,1.7,1.6,3.1,3.5,3.2
	c0.9,0,1.7-0.3,2.4-0.8c0.7,0.8,1.6,1.3,2.7,1.3h0.1c1.1,0,2.1-0.5,2.8-1.4c0.5,0.3,1.1,0.4,1.7,0.5c1.1,0,2.1-0.4,2.8-1.2
	c0.5,0.3,1.1,0.5,1.7,0.5c1.5,0,2.9-0.9,3.4-2.2c0.2,0,0.4,0.1,0.6,0.1c1.8,0.1,3.4-1.3,3.7-3c1.6-0.3,2.9-1.7,3-3.5v-0.1
	c0,0,0,0,0.1,0c1,0,1.9-0.3,2.6-1s1.1-1.6,1.1-2.5C158.6,136.9,158.2,135.9,157.4,135.3z M137.3,193.6c-0.5,1.3-1.2,2-2.3,2h-0.2
	c-1,0-1.9-1-2.3-1.5c0.2-1,0.2-2.2,0.3-3.7c0.1-3,0.1-6,0.1-8.9c0.6,0.1,1.3,0.2,2,0.2c1.3,0,2.7-0.2,4-0.8
	C139,183.7,138.7,189.7,137.3,193.6z M136.6,163.2c1.1,0.1,1.7,0.5,2.4,1s1.5,1,2.9,1.1c2,0.2,3.3-0.7,4.5-1.4
	c1.2-0.7,2.2-1.4,3.8-1.2c0.8,0.1,2.5,0.5,2.8,1.5c0.5,1.3-1.4,3.6-3.4,4.9c-1.6,1-3.4,1.3-4.7,1.3c-0.1-0.4-0.5-0.7-0.9-0.6
	c-0.4,0.1-0.7,0.5-0.6,0.9c1.3,4.8,1.9,9.7,1.9,14.4c0,5.1-0.7,8.4-2,9.1c-1.3,0.7-3.1,0-4.3-0.6c-0.1,0-0.1,0-0.2-0.1
	c1.4-4.5,1.7-10.9,1.5-13.4c1.1-0.7,2-1.5,2.9-2.6c0.3-0.3,0.2-0.8-0.1-1.1c-0.3-0.3-0.8-0.2-1.1,0.1c-1,1.3-2.2,2.2-3.6,2.8
	c-4.3,1.9-8.5-0.3-9.3-0.8c-0.4-0.2-0.8-0.1-1.1,0.3c-0.2,0.4-0.1,0.8,0.3,1.1c0.4,0.2,1.5,0.8,3,1.2c0,3.1,0,6.2-0.1,9.3
	c0,1.6-0.1,2.8-0.3,3.7c0,0,0,0,0,0.1c-0.2,0.8-0.5,1.3-1,1.7c-1,0.7-2.6,0.8-3.6,0.3c-1.9-1.1-1.1-5.6-0.6-7.2v-0.1l0.2-3.7
	c0.1-2.6-0.3-5.1-1.3-7.6c-0.4-1.1-0.8-2.1-1-3.1c-1.5-6.1,1-8.6,1.8-9.3c1.7-1.4,3.8-1.4,4-1.4c2.4,0,4.4,1.6,5.1,4.1
	c0.1,0.4,0.5,0.7,1,0.5c0.4-0.1,0.7-0.5,0.5-1c-0.5-1.6-1.3-2.9-2.5-3.8C134.6,163.3,135.6,163.1,136.6,163.2z M124.7,162.5
	c0.8-0.5,1.6-1,2.3-1.3h0.1c0-0.1,0.1-0.1,0.1-0.1c1.6-0.8,3.1-1.1,4.3-1.1c1,0,1.7,0.3,2,0.8c0.2,0.3,0.3,0.8,0.2,1.4
	c-0.6,0.2-1.2,0.5-1.8,0.8c-0.7-0.3-1.5-0.5-2.4-0.5c-0.5,0-2.9,0-5,1.7c-1.8,1.4-2.7,3.6-2.8,6.4v0.4c-0.9,0-1.5-0.3-1.9-0.7
	c-0.5-0.7-0.3-1.8,0.5-3.2C121.2,165.4,122.8,163.8,124.7,162.5z M78.8,58.3c9.4,0,19.1,3.7,27.5,10.5c3.8,3.1,7.1,6.7,9.7,10.4
	c2.6,3.8,4.4,7.7,5.2,11.4c0.6,2.9,0.8,5.6,0.6,8.2c-2.5-2.3-6.1-5.3-10.8-8c-0.1-1-0.3-2-0.6-2.9c-0.8-2.4-2.2-4.6-4.1-6.4
	c-1.6-1.4-3.1-2.3-4-2.8c-2.8-1.5-5.9-2.3-9.2-2.3c-3,0-5.4,0.6-6.9,1.1c-2.2,0.8-5.8,2-8.1,5.2c-2.3-0.2-4.7-0.2-7,0
	c-1.3,0.1-2.5,0.3-3.7,0.5c-0.2-0.3-0.4-0.6-0.7-0.8c-3-3.5-7.3-4-9.8-4.3c-0.9-0.1-1.8-0.2-2.7-0.2c-3.2,0-7.8,0.7-11.9,3.8
	c1.2-2.8,2.8-5.5,5-8C56.4,63.1,71.5,58.3,78.8,58.3z M108.5,101.2c0.7-1.2,1.1-2.2,1.3-2.7c0.3-0.8,0.8-2.2,1.1-4
	c0.1-0.6,0.2-1.3,0.2-1.9c4.8,2.9,8.3,6,10.6,8.2c-0.6,2.5-1.1,5.3-1.1,8.2C116.6,105.9,112.6,103.4,108.5,101.2z M116,107.6
	c0,5.9,1.2,12.1,5.1,16.5c1.5,1.8,0.4,4.8-1,6.2c0,0-0.1,0.1-0.2,0.1c-1.2,1.2-2.9,0.6-3.7-0.7c-4.7-8-6.6-17.1-6.7-26.3
	C111.7,104.7,113.9,106.1,116,107.6z M68.2,146.5c0,0.1,0.1,0.2,0.1,0.4c-0.4,0.3-0.8,0.5-1.2,0.7c-0.4,0.1-0.7,0.1-1.1,0.2
	c-1.7,0-3.4-1.5-4.7-4.2c-1.4-2.9-2.3-6.9-2.4-11.1c-0.1-2.9,0.3-5.6,0.9-8c-0.1,0.8-0.2,1.7-0.2,2.5c-0.2,5.8,2,10.5,4.8,10.6
	c2.6,0.1,4.8-3.9,5.2-9l-3.8-1c-1.1-0.3-1-1.9,0.1-2l3.7-0.5c-0.3-4-1.7-7.2-3.6-8.2c1.5,0.2,3.1,1.7,4.3,4.2
	c1.4,2.9,2.3,6.9,2.4,11.1c0.1,2.7-0.2,5.3-0.8,7.6c-1.1,0.4-2.1,1.2-2.8,2.2C68.3,143.3,67.9,144.9,68.2,146.5z M79,106.3
	c1.1,1.2,2.5,1.9,3.8,2.3c0,0.1-0.1,0.1-0.1,0.2c-1,1.8-2.8,2.9-4.8,2.9c-2.2-0.1-4.2-1.6-4.9-3.9c1.8-0.1,3.1-0.9,3.3-1
	c0.4-0.2,0.5-0.7,0.2-1.1c-0.2-0.4-0.7-0.5-1.1-0.2c-0.1,0.1-2.3,1.4-4.8,0.4c-1.6-0.7-2.4-2.1-2.7-3c0.3-0.7,0.4-1.5,0.5-2.3
	c1.4-0.2,2.7-0.9,3.6-2c0.1,0,0.1,0,0.2,0c0.4,0,0.8,0,1.1-0.1c1.6-0.4,2.9-1.5,3.7-3c0,0,0,0,0-0.1c0.3,0.9,0.6,1.5,0.8,1.9
	c0.9,1.9,2.1,3.7,3.5,5.2c1.2,1.2,2.6,2.3,4.2,3.3c0.4,0.2,0.7,0.4,1,0.6c-0.3,0.3-0.7,0.6-1.1,0.7c-1.6,0.6-3.8-0.1-5.4-1.8
	c-0.3-0.3-0.8-0.3-1.1,0C78.7,105.5,78.7,106,79,106.3z M65.5,115.3c-0.2,0-0.3,0-0.5,0.1l-0.2-4c0.7-0.3,1.4-0.9,2-1.6
	c0.8-1.1,1.3-2.4,1.3-3.8c0.5,0.5,1.1,1,1.9,1.3c0.4,0.2,0.9,0.3,1.3,0.4v0.1c0.4,1.8,1.5,3.3,3,4.3l0.4,27.4h-1.2
	c0.5-2.3,0.7-4.7,0.7-7.3C74.1,122.6,70.2,115.2,65.5,115.3z M59.9,108.3c-0.1-0.1-0.1-0.1-0.2-0.2c0.8-0.5,1.9-1.2,3-2.2h0.7
	c0.7,0,1.5-0.1,2.3-0.6c0.3-0.2,0.6-0.4,0.9-0.6v0.1c0.2,1.4-0.1,2.8-0.9,3.8c-0.6,0.8-1.4,1.3-2.2,1.4
	C62.2,110.3,60.8,109.6,59.9,108.3z M60.6,111c-0.7,0.9-1.7,1.4-2.8,1.4c-0.9,0-1.8-0.3-2.4-0.8c-0.3-0.4-0.6-0.8-0.7-1.4
	c1.7-0.4,2.9-1,3.7-1.4c0,0,0.1,0,0.1-0.1c0,0.2,0,0.3,0.1,0.5C59.2,110,59.8,110.6,60.6,111z M64.5,104.3c0.8-0.9,1.6-1.8,2.2-2.8
	c-0.3,1.2-0.9,2.2-1.8,2.6C64.8,104.2,64.7,104.2,64.5,104.3z M69.9,96.2c-0.3-0.2-0.5-0.4-0.7-0.6c0,0,0,0,0-0.1
	c0-0.2,0.1-0.5,0.2-0.8c2.1-0.2,4.2-0.4,6.4-0.4c0,0.1,0,0.1-0.1,0.2c-0.6,1.1-1.6,2-2.7,2.2C72,97.1,70.8,96.9,69.9,96.2z M76.2,92
	c0.1,0.3,0.1,0.6,0.2,0.9c-2.4,0-4.6,0.1-6.8,0.4c0.1-0.9,0.2-1.9,0.1-3.1c-0.1-2.1-0.6-4-1.4-5.6c1-0.1,1.9-0.3,2.9-0.3
	c2-0.2,4-0.2,6,0C76.1,86.5,75.8,89.1,76.2,92z M68.7,97.3c0.1,0.1,0.2,0.2,0.3,0.2c0.4,0.2,0.7,0.4,1.1,0.5c-0.6,0.4-1.3,0.7-2,0.8
	C68.3,98.4,68.5,97.8,68.7,97.3z M67.7,95.3c-1.8,8.2-9.2,11.8-9.9,12.1c-1.2,0.6-3.7,1.7-6.9,1.7c-1.1,0-2.3-0.1-3.5-0.5
	c-4.7-1.4-7-5-7.8-6.3c-0.8-1.3-3-4.7-2.6-9.3c0.6-5.2,4.2-8.4,5.6-9.5c4.1-3.5,8.9-4.2,11.9-4.2c1.1,0,2,0.1,2.5,0.2
	c2.5,0.3,6.2,0.8,8.8,3.8C69.4,87.6,68,93.6,67.7,95.3z M54.2,112.7c0.8,0.8,2,1.3,3.3,1.3c0.1,0,0.1,0,0.2,0c1.5-0.1,3-0.8,4-2
	c0.1-0.1,0.1-0.3,0.2-0.4c0.4,0.1,0.7,0.1,1.1,0.1l0.2,4.3c-3.5,2.1-5.9,8.6-5.8,16.5c0.1,4.5,1,8.6,2.5,11.8c1,2.1,2.3,3.6,3.7,4.4
	c-1.3,0.6-2.7,1.4-4.4,2.3c-1.3,0.7-1.9,1.2-2.4,1.5c-0.2,0.1-0.3,0.2-0.5,0.3L54.1,123l-0.9-12.2C53.4,111.5,53.7,112.1,54.2,112.7
	z M70.4,142.9c0.7-1,1.7-1.6,2.9-1.9c1.7-0.3,3.4,0.4,4.4,1.7c0.3,0.3,0.7,0.4,1.1,0.2c0.3-0.3,0.4-0.7,0.2-1.1
	c-0.6-0.8-1.4-1.5-2.3-1.9l-0.5-27.1c0.5,0.2,1.1,0.3,1.7,0.3c0.1,0,0.1,0,0.2,0c2.4,0,4.8-1.4,6-3.7c0.1-0.2,0.1-0.5,0-0.7h0.3
	c0.4,0,0.8-0.1,1.1-0.1l-0.1,7.4c-3.9,1.5-6.7,8.4-6.5,16.9c0.1,4.5,1,8.6,2.5,11.8c0.6,1.2,1.3,2.2,2,3c-0.7-0.1-1.4-0.2-2.1-0.2
	c-0.4,0-1,0-1.7,0.1c-0.1-0.1-0.2-0.3-0.3-0.3c-0.4-0.2-0.9-0.1-1,0.3c-0.6,1.2-1.8,2.1-3.1,2.3c-2.4,0.5-4.7-1.1-5.2-3.6
	C69.5,145.1,69.8,143.9,70.4,142.9z M82.7,144c-1.4-2.9-2.3-6.9-2.4-11.1c-0.1-2.9,0.3-5.6,0.9-8c-0.1,0.8-0.2,1.7-0.2,2.5
	c-0.2,5.8,2,10.5,4.8,10.6c2.6,0.1,4.8-3.9,5.2-9l-3.8-1c-1.1-0.3-1-1.9,0.1-2l3.7-0.5c-0.3-4-1.7-7.2-3.6-8.2
	c1.5,0.2,3.1,1.7,4.3,4.2c1.4,2.9,2.3,6.9,2.4,11.1c0.1,4.2-0.6,8.2-1.9,11.2c-1.2,2.8-2.9,4.4-4.6,4.4
	C85.8,148.2,84,146.7,82.7,144z M93.5,144.4c1.4-3.2,2.2-7.4,2.1-11.9c-0.2-9.3-3.8-16.6-8.4-16.9l0.1-7.9c0.1-0.1,0.2-0.2,0.3-0.3
	c0.4,2.1,1.9,3.9,3.9,4.4c0.5,0.1,0.9,0.2,1.4,0.2h0.6c0.5,0.7,1.2,1.2,1.9,1.6c0.4,0.2,0.8,0.3,1.2,0.3l-1.3,32.3l-0.4,7.2
	c-0.8-0.4-1.2-0.6-1.7-1c-0.5-0.4-1.1-0.8-2.4-1.5c-0.9-0.5-1.7-1-2.4-1.4C90.4,149.2,92.2,147.4,93.5,144.4z M89.1,107.4
	c0.9,0.3,1.6,0.5,1.9,0.6c0.9,0.2,2.7,0.6,4.8,0.6h0.6c-1,1.5-2.9,2.2-4.5,1.8C90.5,110,89.5,108.8,89.1,107.4z M96,112.2
	c-0.4-0.2-0.6-0.4-0.9-0.6c1-0.4,1.9-1.1,2.5-2.1c0.3-0.3,0.2-0.7,0-1c1.1-0.1,2.1-0.4,3.1-0.7c0.5,0.8,0.7,1.7,0.5,2.4
	c-0.2,0.8-0.8,1.4-1.7,1.8C98.4,112.5,97,112.6,96,112.2z M96.8,146.4l1.6-32.4c0.6-0.1,1.2-0.3,1.8-0.5c1.3-0.6,2.2-1.6,2.5-2.8
	c0.5,3.3,1,6.4,1.7,9.3c0.8,3.2,1.7,6.1,2.7,8.6l-1.2,17.4l-0.7,9.2c-1,0.2-1.7,0.4-2.4,0.4c-2.4,0.2-4.4-0.5-6.2-1.3L96.8,146.4z
	 M101.9,105.6c-2.1,1.1-4.3,1.5-6.1,1.5c-1.9,0-3.5-0.4-4.4-0.6c-0.7-0.2-8.7-2.2-12.1-9.9c-0.7-1.6-3.2-7.2-0.4-12.1
	c2-3.5,5.5-4.7,7.9-5.5c0.9-0.3,3.4-1.1,6.4-1.1c2.5,0,5.5,0.5,8.4,2.1c1.5,0.8,5.8,3.2,7.4,8.2c1.4,4.4-0.1,8.2-0.7,9.6
	C107.8,99.3,106.2,103.3,101.9,105.6z M43.7,75.9c-1.6,2.4-2.8,4.9-3.7,7.5c0,0.1-0.1,0.2-0.1,0.3c-0.6,0.6-1.2,1.3-1.8,2.1
	c-1.6,2.2-2.5,4.5-2.8,7.1c-0.2,2.2,0.1,4.4,0.9,6.6c0.7,1.8,1.5,3,1.9,3.7c0.3,0.4,0.7,1,1.3,1.8c-2.3,4.8-4.9,8.3-7.8,10.8
	c-0.4,0.3-0.8,0.7-1.2,1c-0.3-0.8-0.6-1.6-0.8-2.4c3-1.9,4.6-4.4,3.9-6.6c-0.3-1.2-1.3-2.1-2.7-2.7c0.5-0.5,1.1-1.1,1.5-1.7
	c2.3-3.2,4-9.2,0.7-12.8c-1.1-1.2-2.6-1.9-4.5-2.2C33.7,84.3,38.7,80.1,43.7,75.9z M17.1,79.2c0,0,1.6-1.6,3.2-1.4
	c1.4,0.2,2.6,2.3,3.4,4.1c0.7,1.6,1.3,4.5,1.6,6.5c-1.5,0.2-3.1,1.3-5.2,3.1c-1.2-2-3.1-5.5-3.6-7.2C16,82.1,15.9,80.4,17.1,79.2z
	 M13.4,86.1c0.5-0.9,1.4-1.5,1.7-1.6v0.1c0.5,1.9,2.7,5.5,4,7.8c-0.8,0.7-1.7,1.5-2.6,2.4C13.6,91.4,12.4,88,13.4,86.1z M7.8,89.9
	c0.7-1.3,1.6-1.8,2.2-2.1c0.5-0.2,1-0.2,1.5-0.2c0,2.4,1.3,5.3,3.8,8.2c-1.2,1.1-1.6,1.9-1.6,2.8c0,0.3,0,0.7,0.1,1
	c-1.1,0.1-2.3-0.4-2.5-0.5c-1.6-0.7-2.9-2.2-3.6-4.1C7.1,93.2,7.1,91.3,7.8,89.9z M16.5,115.7c-1.9-0.3-3.1-1.1-3.4-2.2
	c-0.4-1.5,1-3.5,3.6-5.1l-0.8-1.3c-0.6,0.3-1.1,0.7-1.5,1.1c-0.5-0.1-1-0.2-1.5-0.4c-1-0.4-3-1.6-4.1-4.8c1-0.7,1.9-1.4,2.9-2.1
	c0.5,0.1,1.2,0.3,1.8,0.3c0.3,0,0.6,0,0.9-0.1c0.1,0.2,0.2,0.3,0.4,0.5c1.2,1.3,3.2,2.2,5,2.3c3,0.1,5.9-2.2,7-5.5l-1.5-0.5
	c-0.9,2.7-3.2,4.5-5.5,4.4c-1.4,0-3-0.7-3.9-1.8c-0.4-0.4-0.8-1.1-0.8-1.8c0-0.6,0.4-1.1,2.2-2.8c4.2-3.9,6.4-5.8,8.2-6.1
	c0.7-0.1,4.1-0.5,6.1,1.7c2.4,2.6,1.5,7.6-0.8,10.8c-2.1,2.9-5.2,3.9-6.9,4.3l0.3,1.5c1.2-0.3,3-0.8,4.9-2c1.4,0.4,2.4,1.1,2.6,2
	c0.3,1-0.3,2.4-1.7,3.7c-1.6,1.4-3.8,2.6-6.4,3.4C21.2,115.9,18.6,116.1,16.5,115.7z M25.7,140.9c-5.9-0.1-11.5-4.7-14.2-8.8
	c-1.4-2.2-2.1-4.3-1.6-5.5c0.5-1.1,2.2-1.4,4.9-1.8c1.6-0.2,3.4-0.5,5.3-1.1c0.5-0.1,0.9-0.3,1.4-0.4c0.1,0,0.2-0.1,0.4-0.1
	c3.5,6.9,8.5,11.4,11.2,13.3c0.4,0.4,0.9,0.7,1.4,1C31.5,139.8,28.7,140.9,25.7,140.9z M41.8,129.9c-1.5-0.8-3.8-2.4-6.1-4.8
	c-1.4-1.5-3-3.5-4.3-6c0.6-0.4,1.2-0.8,1.8-1.3c2.5-2.1,4.8-4.9,6.8-8.5l2.1,20.3C42,129.7,41.9,129.8,41.8,129.9z M41.4,107.1
	c1.4,1.2,3.2,2.4,5.4,3.1c1.3,0.4,2.6,0.6,4,0.6h0.7l1,12.4l2.2,30.7c-2,0.9-4.4,2-7.2,1.8c-0.4,0-0.7-0.1-1.1-0.1L41.4,107.1z
	 M49.4,184.9l-2.1-20.6c0.8,0.4,1.8,0.7,2.9,1c2,0.4,3.7,0.4,5.3,0.2l1.4,20.3C54.3,185.5,51.8,185.2,49.4,184.9z M59.1,185.9
	L57.4,165c0.1,0,0.3-0.1,0.4-0.1c0.2,0,0.3-0.1,0.5-0.1c0.9-0.2,1.9-0.4,3.1-0.7c-0.3,0.3-0.6,0.6-0.5,1.2c0.1,0.8,0.8,1.1,1.1,1.2
	c0.6,0.3,1.4,0.4,2.4,0.4c0.3,0,0.7,0,1.1-0.1l0.8,19.5C63.8,186.3,61.4,186.2,59.1,185.9z M68.2,186.6l-1-19.8
	c0.7-0.2,1.6-0.5,2.5-1c0,0,0,0,0.1,0c0,0,0,0,0,0c0.4-0.2,0.9-0.5,1.3-0.7c0,0,0,0,0,0c0.1,0,0.1-0.1,0.2-0.1
	c0.8,1.7,2.2,3,3.8,3.5l0,0l0.3,18.4C73,186.7,70.6,186.7,68.2,186.6z M84,186.8h-6.6l-0.2-18.3c1.4-0.2,2.8-1.2,3.7-2.5
	c0.5,0.2,1,0.3,1.4,0.5l0.8,0.2c0,0,0.1,0,0.1,0c0,0,0,0,0.1,0c0.3,0.1,0.7,0.1,1,0.2L84,186.8z M93.3,186.6
	c-2.2,0.1-4.5,0.2-6.7,0.2l0.2-19.8c0.5-0.1,1-0.2,1.4-0.4c0.2-0.1,0.9-0.5,1.1-1.2c0.1-0.5-0.2-0.9-0.5-1.2
	c1.1,0.3,2.2,0.5,3.1,0.7c0.2,0,0.3,0.1,0.5,0.1c0.7,0.1,1.4,0.3,2.1,0.4L93.3,186.6z M92.5,163.4c-0.2,0-0.3-0.1-0.5-0.1
	c-1.3-0.3-3.2-0.6-5-1.4c-0.2-0.1-0.5-0.1-0.7,0c-0.2,0.1-0.4,0.3-0.4,0.6c-0.1,0.7,0.3,1.3,0.6,1.7c0.3,0.4,0.7,0.7,0.9,0.9
	c-0.4,0.2-1.5,0.3-2.9,0.2c-0.3,0-0.7-0.1-1-0.1c-0.1,0-0.2,0-0.2-0.1c0,0,0,0,0,0c-1.5-0.3-3.6-1.1-5.7-2.9c-0.7-0.6-1.4-1.4-2-2.2
	l-0.6-0.9l-0.6,0.9c-0.6,0.8-1.3,1.5-2,2.2c-1.3,1.1-2.6,1.9-3.8,2.4c-0.6,0.2-1.2,0.4-1.7,0.6c-0.1,0-0.2,0.1-0.3,0.1c0,0,0,0,0,0
	c0,0,0,0,0,0c-1.9,0.4-3.3,0.2-3.8-0.1c0.2-0.2,0.5-0.5,0.9-0.9c0.4-0.5,0.8-1.1,0.6-1.7c0-0.2-0.2-0.4-0.4-0.6
	c-0.2-0.1-0.5-0.1-0.7,0c-1.9,0.8-3.7,1.2-5,1.4c-0.2,0-0.4,0.1-0.5,0.1c-2.2,0.4-4.4,0.9-7.1,0.3c-2.6-0.6-4.3-1.7-5-2.2
	c-2.7-1.8-4.4-4.2-5.3-6.1c0.7,0.2,1.4,0.4,2.1,0.6c2.5,0.6,3.7,1,5.1,1.1h0.9c3,0,5.5-1.1,7.5-2.1c1.1-0.5,1.5-0.8,2.1-1.2
	c0.5-0.3,1.1-0.7,2.3-1.5c2.7-1.5,4.5-2.5,6.3-3c0.4,0,0.8-0.1,1.3-0.3c0.4-0.1,0.9-0.1,1.3-0.1h0.3c1.1,1.5,2.9,2.5,4.8,2.5
	c0.4,0,0.7,0,1.1-0.1c1.4-0.3,2.7-1,3.6-2.2c1-0.2,1.8-0.2,2.3-0.2c2.8,0,4.9,1.1,8.9,3.4c1.2,0.7,1.8,1.1,2.3,1.5
	c0.6,0.4,1,0.7,2.1,1.2c2.2,1,4.9,2.3,8.3,2.1c1.3-0.1,2.6-0.4,5.1-1.1c0.7-0.2,1.4-0.4,2.1-0.6c-1,1.9-2.6,4.2-5.3,6.1
	c-0.8,0.4-2.5,1.6-5.1,2.1C96.9,164.3,94.8,163.9,92.5,163.4z M102.6,185.9c-2.4,0.2-4.9,0.4-7.4,0.5l0.8-20.9
	c1.2,0.1,2.5,0,3.9-0.3c1.9-0.4,3.4-1.2,4.5-1.8L102.6,185.9z M115.2,156.6l-0.1,0.3l-2.9,27.9c-2.5,0.4-5.1,0.7-7.8,0.9l1.7-23.5
	c2.9-2.2,4.6-4.8,5.5-6.8c0.3-0.6,0.1-1.2-0.5-1.6c-0.3-0.2-0.7-0.3-1.1-0.1c-0.9,0.3-1.8,0.5-2.7,0.7c-0.3,0.1-0.5,0.1-0.7,0.2
	l0.6-8.7l1.1-14.3c0.8,1.5,1.6,2.8,2.5,3.9c1.8,2.2,3.7,4.4,5.8,6.5L115.2,156.6z M129.9,149.7c-0.8,0-1.5-0.5-1.8-1.2
	c1.1,0.2,2.2,0.4,3.5,0.4C131.2,149.4,130.6,149.7,129.9,149.7z M136.9,149c-0.3,0.8-1.1,1.3-1.9,1.2c-0.8,0-1.6-0.5-1.9-1.3
	c1.3-0.1,2.7-0.2,4-0.5L136.9,149z M151.1,143.4C151.1,143.4,151,143.4,151.1,143.4h-0.9v0.8c0,0.1,0,0.1,0,0.2c0,1.1-0.9,2-2.1,2
	c0,0,0,0-0.1,0c-0.3,0-0.6-0.1-0.8-0.2l-1-0.5l-0.1,1.1c-0.1,1-1,1.8-2.1,1.8c-0.5,0-1-0.2-1.4-0.6l-0.8-0.7l-0.5,0.9
	c-0.4,0.7-1.1,1.1-1.9,1.1c-0.5,0-1-0.2-1.4-0.6l-0.4-0.4c2.7-0.6,5.5-1.6,8.2-3c2.6-1.3,5-3,7-4.7c0.1,0.2,0.1,0.5,0.1,0.8
	C153.1,142.5,152.2,143.4,151.1,143.4z M132.4,147.3h-0.5c-4-0.1-7.7-1.4-11.1-4c-3.2-2.2-5.7-5.1-8.6-8.7
	c-2.4-2.9-4.7-8.3-6.3-15.1c-1-4-1.7-8.5-2.2-13.2c1.8-1.1,3-2.5,4-3.9c0.1,0,0.1,0.1,0.2,0.1c0,9.9,2,19.9,7.1,28.6
	c1.2,2.2,3.8,2.8,5.7,1c0.1-0.1,0.2-0.2,0.2-0.2c1.2-1.3,2-3.1,2.4-4.8c0.2-1.5,0.3-3-0.7-4.3c-3.4-3.7-4.6-8.9-4.7-14
	c1,0.7,1.9,1.4,2.8,2.1c0.2,3.8,1.1,7.6,3.5,10.7c3.7,4.9,10.1,7.4,19.2,7.5c3.4,0,6.4,0.4,8.7,1c2.3,0.7,3.7,1.6,4.1,2.7
	c0.3,0.9-0.2,2.2-1.3,3.7C151.5,141.1,141.8,147.3,132.4,147.3z M156.3,139.2c-0.4,0.4-0.9,0.6-1.5,0.6c-0.3,0-0.5-0.1-0.8-0.2
	c0.7-0.7,1.4-1.5,1.9-2.2c0.3-0.2,0.4-0.5,0.6-0.8c0.2,0.4,0.4,0.8,0.4,1.2C156.9,138.3,156.7,138.9,156.3,139.2z"/>
</svg>
